<svg xmlns="http://www.w3.org/2000/svg" width="138" height="103" viewBox="0 0 138 103">
    <g fill="none" fill-rule="evenodd">
        <path fill="#75706E" d="M5.005 81.072c-.109.234-.35.538-.364.852-.016.301.13.804.335.885.539.215 1.144.308 1.73.342 4.457.257 8.915.513 13.374.712 1.527.068 3.064-.24 4.585.178 3.918 1.077 7.986.802 11.963 1.02 5.177.279 10.364.319 15.509 1.043 2.581.364 5.154.237 7.76.087 2.285-.13 3.145-1.372 3.368-3.289.792-6.813 2.239-13.53 2.799-20.38.777-9.422 1.762-18.824 2.59-28.24.316-3.532.576-7.075.012-10.62-.177-1.099-.52-1.728-1.809-1.589-1.184.13-1.675.68-1.627 1.821.005.235-.081.473-.069.705.146 5.335-.602 10.638-.596 15.956-.005 13.887-2.508 27.527-3.855 41.279-.207 2.134-1.108 2.522-3.353 2.477-6.852-.138-13.607-1.384-20.487-1.405-10.153-.027-20.313-.502-30.403-1.824-.458-.06-.903-.328-1.462-.01zm48.534-63.477c-.066.495-.137 1.068-.228 1.637-.367 2.278-.982 3.057-3.085 3.06-6.61.004-13.234.137-19.82-.324-3.164-.224-6.768-.968-7.21-5.402-.111-1.056-1.007-1.168-1.878-1.203-2.123-.085-4.242-.227-6.373-.262-2.565-.046-2.534.068-3.102 2.744-1.221 5.784-1.706 11.678-2.692 17.488C6.9 48.612 6.28 62.113 3.5 75.322c-.677 3.218-1.212 2.99 2.644 3.874 3.938.902 7.986.76 11.976 1.14 11.87 1.126 23.811.483 35.68 1.774 4.928.537 4.929.124 5.675-4.82 2.591-17.22 3.645-34.558 3.924-51.948.035-2.22 1.328-4.986-.442-6.61-1.687-1.553-4.512-.985-6.84-1.32-.787-.113-1.647-.265-2.577.183zm-9.231-6.532l.094.028c-2.877-1.123-2.878-1.126-1.854-3.647.178-.436.514-.828.604-1.276.22-1.168-.307-2.137-1.219-2.759-.922-.626-2.017-.68-2.996-.027-.814.542-.701 1.309-.562 2.202.49 3.208-.822 4.868-4.065 4.93-1.88.036-3.74.57-5.644.146-.8-.175-1.68-.018-2.353.544-2.31 1.914-1.555 7.04 1.25 8.125 1.871.72 3.795 1.151 5.88 1.052 3.06-.15 6.174-.271 9.18.18 3.016.451 5.766-.234 8.75-.582-.85-1.836-.249-3.46-.268-5.077-.012-1.502-.32-2.762-2.308-2.894-1.506-.1-2.988-.616-4.49-.945zm.3-2.449c1.75.442 3.148 1.032 4.703 1.197 2.47.26 3.575 1.271 3.725 3.711.093 1.516.86 1.767 1.982 1.895 2.347.27 4.702.513 7.05.783.692.081 1.772-.104 1.977.493.962 2.891 4.27 2.85 5.835 4.902.597.781.584 1.792.646 2.73.17 2.84.171 5.677-.097 8.513-.997 10.589-1.898 21.189-3.008 31.769-.707 6.814-1.692 13.602-2.592 20.395-.254 1.924-1.626 2.85-3.398 3.077-2.465.318-4.951.378-7.418.126-5.995-.603-11.951-1.483-18.007-1.336-2.11.05-4.241-.273-6.348-.55-7.27-.951-14.594-.816-21.892-1.206-1.06-.058-2.13-.133-3.17-.328-1.586-.298-2.69-.999-1.97-2.92.183-.49.661-1.213-.157-1.466-1.99-.617-1.581-1.972-1.25-3.404 2.446-10.62 3.287-21.48 4.856-32.232 1.33-9.117 2.024-18.336 4.035-27.355.63-2.818 1.761-3.88 4.567-3.987 1.179-.047 2.385-.111 3.543.052 2.839.404 5.371.552 6.371-3.067.456-1.657 2.241-1.578 3.62-1.58 2.137 0 4.243-.233 6.342-.564 1.284-.203 1.959-.735 1.682-2.42-.536-3.292 1.085-4.836 4.693-4.96 2.31-.082 4.716 2.775 4.445 5.383-.07.68-.419 1.327-.765 2.35z"/>
        <path fill="#FA8D86" d="M22.961 27.562c-1.236-.988-2.961-1.07-4.563-1.494-1.442-.385-1.997.38-2.063 1.664-.043.827-.091 1.661-.024 2.483.201 2.436 2 3.68 4.406 3.113 1.777-.419 3.378-4.25 2.244-5.766zm-9.828 7.644c1.884-1.598 1.498-3.415 1.284-5.27-.671-5.82.59-6.814 6.366-5.148.803.23 1.618.447 2.402.722 1.71.587 2.388 1.782 2.201 3.566-.526 4.876-2.642 6.636-7.699 5.835-1.498-.238-2.74.865-4.554.295zM19.539 43.679c-.64-.895-4.393-2.159-5.486-1.868-.537.143-.824.479-.784.984.136 1.705.135 3.448.523 5.095.41 1.74 4.016 2.799 5.271 1.715.927-.799 1.248-4.84.476-5.926zm-6.766-3.377c.577-.387 1.24-.406 1.984-.343 6.137.517 7.71 2.571 6.735 8.9-.35 2.309-1.52 3.16-3.917 2.901-1.512-.163-2.848-1.14-4.489-.765-.468.107-.834-.221-.95-.773-.59-2.833-.603-5.703-.456-8.584.031-.646.479-1.03 1.093-1.336zM17.3 60.318c-.888-1.432-3.627-2.127-4.942-1.253-1.088.721-1.231 4.268-.243 6 .57 1.002 3.438 1.482 4.72.791 1.256-.675 1.52-3.835.465-5.538zm-6.542 5.434c-1.228-2.15-.972-4.585-1.278-6.893-.136-1.03.869-1.588 1.826-1.77 1.831-.349 3.69-.184 5.463.348 1.413.424 2.24 1.638 2.636 3.12.41 1.532.195 3.074.179 4.608-.005.434-.228.921-.49 1.273-1.741 2.341-6.785 1.906-8.336-.686zM30.511 28.743c.636-.42 1.166-.359 1.266.155.383 1.826 1.231 1.187 2.111.37.97-.9 1.836-.969 2.656.108.372.488.864.761 1.52.548 1.396-.45 2.769-.698 4.055.206.08.059.257.083.342.035 2.663-1.524 4.891-.222 7.279.68 1.382.521 3.022.607 4.443-.362 1.168-.793 2.002.005 2.864.513.424.248.577.764.317 1.19-.146.24-.645.516-.88.45-2.62-.719-5.275.78-7.92.037-.865-.244-1.907.077-2.37-.995-.143-.32-.52-.699-.762-.492-2.418 2.062-5.29-.817-7.73.888-.163.116-.557.178-.676.08-1.69-1.436-3.222-.84-4.935.215-.937.578-1.523-.288-1.628-1.156-.096-.848-.653-1.751.048-2.47M53.492 48.998c-1.196 1.115-1.841.78-2.417.406-2.307-1.488-4.73-1.68-7.515-1.501-2.138.134-4.352-.988-6.483.392-1.448-1.778-2.6-.25-3.835.37-.634.32-1.493.732-1.929.164-1.463-1.943-3.251-.937-4.962-.501-.576-1.24-.697-2.289.11-3.668 1.565 1.83 4.106.704 5.792 2.167.13.115.53.146.628.045 2.11-2.161 5.098-.282 7.374-1.648.268-.16.76-.266.989-.132 2.92 1.683 6.212.791 9.295 1.288 1.532.247 1.38 2.183 2.953 2.618M24.419 66.026c-.33-1.817-.594-3.54-.241-5.316.098-.5.345-.912.917-.872.597.04.74.501.737 1.01-.006.694-.33 1.4.15 2.302 1.883-.67 3.836-1.383 5.64.175 2.738-1.185 5.628 1.855 8.353-.274.487-.38 1.167-.343 1.699-.028 1.244.739 2.448.776 3.718.093.942-.506 1.814-.134 2.713.266.6.268 1.753.031 1.574.986-.176.987-1.515 1.763-2.176 1.194-1.335-1.151-2.417-.437-3.628-.148-.922.22-1.853.487-2.706-.248-.177-.145-.508-.37-.597-.308-2.442 1.673-5.098.295-7.63.532-.819.075-1.724.567-2.35-.17-1.275-1.495-2.444-1.011-3.706-.082-.66.486-1.373.875-2.467.888"/>
        <path fill="#75706E" d="M43.572 11.72c.068 1.026.269 2.132-1.195 2.034-3.742-.26-7.449.484-11.318-.93 4.2-.356 8.399-.713 12.606-1.072 0 .002-.093-.032-.093-.032M34.073 15.78c2.489-.912 4.762-.435 6.754-1.25.418-.173 1.017.153 1.02.791.001.535-.348 1.058-.876 1.012-2.117-.176-4.258.637-6.898-.552M130.335 69.148c1.11.519 2.017.954 2.94 1.375.757.35 1.521.28 2.05-.36 1.387-1.676 1.748-3.71 1.387-5.744-.269-1.476-1.882-1.555-3.067-1.981-.168-.06-.386.011-.663.027-.118 2.504-.723 4.824-2.647 6.683zM79.994 40.544c-.05.13-.11.261-.168.392 2.428 1.652 4.47 3.72 6.52 5.788.957.961 1.965 1.864 2.974 2.78.285.265.638.664 1.041.414.47-.291.177-.655-.075-1.012-.47-.655-.194-.986.554-1.025 1.092-.058 1.31-.569.706-1.432-.605-.868-.403-1.232.647-1.143 1.008.087 1.142-.546 1.025-1.293-.118-.713-.698-.874-1.328-1.059-2.545-.75-5.208-.93-7.77-1.592-1.354-.35-2.748-.55-4.126-.818zm11.82 9.765c-.066.092-.167.19-.226.305-.1.206-.042.413.143.52.411.24.84.452 1.268.662 8.805 4.333 17.727 8.42 26.65 12.501 1.982.905 3.999 1.736 5.906 2.782.537.294 1.109.541 1.672.784.705.303 1.26-.098 1.546-.623.336-.618-.362-.766-.748-.97-1.68-.892-3.462-1.57-5.243-2.247-4.016-1.528-7.821-3.516-11.703-5.333-6.175-2.89-12.61-5.192-18.701-8.268-.168-.086-.32-.276-.563-.113zm2.966-5.876c-1.075 1.93-1.1 1.981.101 2.584 4.327 2.164 8.57 4.486 13.098 6.248 4.377 1.706 8.696 3.576 13.056 5.34 2.966 1.202 5.956 2.35 8.939 3.516.244.098.538.206.68-.14.11-.252.168-.574-.025-.77-.235-.226-.554-.379-.857-.519-2.218-1.032-4.452-2.045-6.679-3.08-7.04-3.273-14.072-6.559-21.12-9.826-2.404-1.112-4.613-2.633-7.193-3.353zm-2.47 4.743c.79.661 1.672 1.026 2.546 1.405 4.94 2.146 9.964 4.12 14.803 6.473 6.133 2.983 12.418 5.601 18.677 8.305.487.21 1.041.612 1.495.086.395-.463.58-1.099.387-1.726-.177-.583-.731-.748-1.244-.956-3.352-1.354-6.679-2.737-10.031-4.08-7.082-2.84-14.257-5.48-21.004-9.096-1.537-.823-3.117-1.556-4.688-2.334-.36.738-.646 1.328-.94 1.923zm38.781 17.252l-.05-.062.034.104a.108.108 0 0 0 .016-.042zM75.314 38.255c.101.216.278.297.513.249.252.48.714.647 1.201.78.21.066.42.132.639.198l.109.064-.126-.024-.647-.198c-.269-.457-.647-.745-1.193-.777a16.723 16.723 0 0 0-.52-.243l-.093-.005.117-.044zm56.055 26.188c.092.072.084.09-.042.055a.47.47 0 0 0 .058-.083c.084-.189.16-.378.236-.567l.05-.105-.017.115c-.092.196-.193.392-.285.585zm4.007 7.142c-.781.466-1.403.541-1.974.218-2.546-1.458-5.327-2.394-7.956-3.674-5.2-2.532-10.494-4.897-15.728-7.36-6.284-2.957-12.56-5.946-18.844-8.917-.933-.444-1.714-1.073-2.462-1.791-2.739-2.636-5.318-5.45-8.334-7.794-1.143-.884-2.319-1.642-3.688-2.152-.95-.355-1.832-.89-2.74-1.373-.344-.19-.747-.414-.63-.925.118-.535.522-.78 1.043-.808.756-.038 1.503.036 2.176.435 3.89 2.304 8.317 2.809 12.61 3.791 2.436.558 4.806 1.1 7.09 2.385a115.885 115.885 0 0 0 12.292 6.017c3.52 1.465 6.839 3.393 10.342 4.909 4.251 1.842 8.343 4.027 12.703 5.627 1.79.656 3.512 1.472 5.243 2.271.907.421 1.411 1.088 1.47 2.218.092 1.832-.403 3.499-1.042 5.151-.328.855-1.025 1.422-1.571 1.772zM115.709 93.97c-.755-.742-1.524-1.467-2.257-2.235a12.15 12.15 0 0 0-1.802-1.521c-.176-.118-.352-.344-.557-.117-.169.196-.08.45.051.63.674.91 1.128 1.963 1.7 2.944.564.98 1.385 1.453 2.462 1.3.25-.034.535.052.66-.267.124-.31-.118-.511-.257-.734zm10.92 5.901c.594.766 1.832 1.163 2.708 1.916.386.324.836.26 1.23-.068.594-.494.61-1.037-.161-1.62-.924-.702-1.953-1.31-2.942-1.962-.378-.252-.643-.128-.94.142-.707.648-.723.8.104 1.592zM78.718 62.57c.386.523.602.571 1.15.138.42-.33.805-.606 1.373-.37.345.145.575-.076.765-.367.19-.296.412-.569.622-.854.561-.77.514-1.037-.338-1.433a17.193 17.193 0 0 1-2.902-1.725c-.514-.374-1.096-.589-1.657-.855-.217-.102-.46-.18-.65.026-.149.16-.06.362-.006.558.21.8.44 1.597.588 2.41.162.92.643 1.684 1.055 2.472zm28.83 24.944c-.796-.862-1.875-1.51-2.784-2.336-.178-.155-.448-.273-.66-.066-.2.195-.072.45.035.65.106.204.277.384.433.563.469.54.952 1.064 1.413 1.61 1.747 2.08 2.968 4.468 4.325 6.774.483.817 1.193 1.475 1.612 2.337.135.272.547.496.88.59.902.25 1.854.504 2.777.276.994-.244 1.946-.548 2.997-.394.348.05.525-.201.362-.539-.085-.175-.185-.379-.348-.476-1.1-.681-2.251-1.376-3.629-1.032-.817.204-1.392-.013-2.038-.418-1.229-.765-1.782-2.01-2.478-3.126-.916-1.473-1.982-2.853-2.898-4.413zm18.96 8.034c-.24-.295-.377-.515-.559-.677-2.03-1.786-4.054-3.57-5.961-5.49-.994-1-2.067-1.906-3.191-2.776-2.466-1.91-4.758-4.046-7.151-6.054-1.53-1.286-3.083-2.548-4.606-3.845-1.45-1.238-3.053-2.3-4.561-3.48-2.198-1.72-4.468-3.34-6.644-5.085-1.842-1.482-3.85-2.78-5.367-4.664-.616-.762-1.472-1.35-2.277-1.938-1.08-.788-1.414-.713-2.342.244-.544.57-.849 1.339-1.494 1.835-.537.415-.414.843.021 1.252.573.544 1.132 1.098 1.77 1.583 1.284.988 2.618 1.94 3.742 3.114 1.342 1.394 2.88 2.538 4.468 3.612 2.487 1.69 4.823 3.585 7.064 5.564a134.318 134.318 0 0 0 4.975 4.16c1.327 1.069 2.821 1.962 4.01 3.162 2.3 2.316 4.997 4.152 7.369 6.372 1.639 1.531 3.365 2.974 4.83 4.672.74.86 1.625 1.556 2.393 2.373.653.694 1.219.652 2.017.111.71-.482 1.196-1.163 1.617-1.882.45-.776.573-1.573-.123-2.163zm-15.572 1.761c-.778-1.198-1.694-2.524-2.515-3.902-1.334-2.225-2.696-4.415-4.332-6.45-.85-1.064-1.6-2.174-2.739-2.98-.605-.427-.548-.746.043-1.258.599-.516.577-.5.065-1.137-.684-.85-1.657-1.36-2.457-2.08-2.206-1.995-4.483-3.913-6.934-5.624-2.472-1.73-4.757-3.694-7.034-5.674-1.182-1.032-2.509-1.897-3.64-2.984-.411-.392-.88-.609-1.47-.365-.57.231-.873-.063-1.219-.52-1.355-1.785-2.176-3.745-2.465-5.974-.158-1.177-1.131-1.983-1.902-2.83-.721-.792-1.442-1.588-2.105-2.429-.245-.31-.404-.653.087-.922.547-.3 1.08-.228 1.246.26.411 1.237 1.276 1.864 2.538 2.026.345.044.641.192.857.453.584.682 1.34 1.108 2.162 1.411.945.35 1.76.923 2.56 1.493.886.638 1.866.855 2.91.873.462.007.902.067 1.01.529.173.753.713 1.12 1.254 1.588 1.312 1.132 2.696 2.174 3.878 3.449 1.21 1.297 2.738 2.255 4.072 3.422 1.557 1.36 3.373 2.37 4.908 3.772 1.434 1.302 3.114 2.33 4.62 3.569 1.269 1.046 2.674 1.948 3.842 3.09 1.665 1.62 3.452 3.086 5.218 4.587 1.413 1.205 2.876 2.354 4.317 3.53a54.248 54.248 0 0 1 4.743 4.343c1.06 1.088 2.256 2.052 3.452 2.986.526.41.987.877 1.47 1.321.159.145.274.32.289.532.1 1.687 1.52 2.412 2.558 3.402.289.277.685.458.937.79.317.412 1.01.746.8 1.297-.288.745-.62 1.547-1.427 1.961-.194.1-.425.196-.59.093-.995-.6-2.365-.465-3.1-1.584-.223-.336-.57-.593-.88-.865-.439-.385-.929-.517-1.498-.25-.945.447-1.831.148-2.53-.46-.57-.494-1.153-.767-1.874-.85-.288-.032-.57-.125-.843-.217-.901-.307-1.752-.232-2.674.039-1.745.51-3.453.368-4.952-.823-.094-.078-.209-.133-.303-.216-.086-.082-.158-.188-.353-.422z"/>
    </g>
</svg>
